<svg id="visual" viewBox="0 0 675 1080" width="675" height="1080" xmlns="http://www.w3.org/2000/svg" xmlns:xlink="http://www.w3.org/1999/xlink" version="1.1"><path d="M128 0L143 18C158 36 188 72 184 108C180 144 142 180 154.5 216C167 252 230 288 258.3 324C286.7 360 280.3 396 264.8 432C249.3 468 224.7 504 206.8 540C189 576 178 612 173.2 648C168.3 684 169.7 720 178.2 756C186.7 792 202.3 828 215.2 864C228 900 238 936 250.8 972C263.7 1008 279.3 1044 287.2 1062L295 1080L0 1080L0 1062C0 1044 0 1008 0 972C0 936 0 900 0 864C0 828 0 792 0 756C0 720 0 684 0 648C0 612 0 576 0 540C0 504 0 468 0 432C0 396 0 360 0 324C0 288 0 252 0 216C0 180 0 144 0 108C0 72 0 36 0 18L0 0Z" fill="#FFFFFF" stroke-linecap="round" stroke-linejoin="miter"></path></svg>