<svg id="visual" viewBox="0 0 1920 100" width="1920" height="100" xmlns="http://www.w3.org/2000/svg" xmlns:xlink="http://www.w3.org/1999/xlink" version="1.1"><path d="M0 72L14.5 71.2C29 70.3 58 68.7 87.2 69.2C116.3 69.7 145.7 72.3 174.8 72.2C204 72 233 69 262 71.5C291 74 320 82 349 81C378 80 407 70 436.2 68.5C465.3 67 494.7 74 523.8 78.2C553 82.3 582 83.7 611 83.8C640 84 669 83 698 78C727 73 756 64 785.2 61.5C814.3 59 843.7 63 872.8 64.5C902 66 931 65 960 68.2C989 71.3 1018 78.7 1047.2 81.2C1076.3 83.7 1105.7 81.3 1134.8 79.5C1164 77.7 1193 76.3 1222 77.3C1251 78.3 1280 81.7 1309 83.7C1338 85.7 1367 86.3 1396.2 87.7C1425.3 89 1454.7 91 1483.8 91.7C1513 92.3 1542 91.7 1571 86.7C1600 81.7 1629 72.3 1658 66.8C1687 61.3 1716 59.7 1745.2 61.7C1774.3 63.7 1803.7 69.3 1832.8 73.7C1862 78 1891 81 1905.5 82.5L1920 84L1920 101L1905.5 101C1891 101 1862 101 1832.8 101C1803.7 101 1774.3 101 1745.2 101C1716 101 1687 101 1658 101C1629 101 1600 101 1571 101C1542 101 1513 101 1483.8 101C1454.7 101 1425.3 101 1396.2 101C1367 101 1338 101 1309 101C1280 101 1251 101 1222 101C1193 101 1164 101 1134.8 101C1105.7 101 1076.3 101 1047.2 101C1018 101 989 101 960 101C931 101 902 101 872.8 101C843.7 101 814.3 101 785.2 101C756 101 727 101 698 101C669 101 640 101 611 101C582 101 553 101 523.8 101C494.7 101 465.3 101 436.2 101C407 101 378 101 349 101C320 101 291 101 262 101C233 101 204 101 174.8 101C145.7 101 116.3 101 87.2 101C58 101 29 101 14.5 101L0 101Z" fill="#FFFFFF" stroke-linecap="round" stroke-linejoin="miter"></path></svg>