<svg id="visual" viewBox="0 0 1920 330" width="1920" height="330" xmlns="http://www.w3.org/2000/svg" xmlns:xlink="http://www.w3.org/1999/xlink" version="1.1"><path d="M0 79L45.7 81.7C91.3 84.3 182.7 89.7 274.2 86C365.7 82.3 457.3 69.7 548.8 68.5C640.3 67.3 731.7 77.7 823 86C914.3 94.3 1005.7 100.7 1097 102.2C1188.3 103.7 1279.7 100.3 1371.2 92.2C1462.7 84 1554.3 71 1645.8 69.3C1737.3 67.7 1828.7 77.3 1874.3 82.2L1920 87L1920 0L1874.3 0C1828.7 0 1737.3 0 1645.8 0C1554.3 0 1462.7 0 1371.2 0C1279.7 0 1188.3 0 1097 0C1005.7 0 914.3 0 823 0C731.7 0 640.3 0 548.8 0C457.3 0 365.7 0 274.2 0C182.7 0 91.3 0 45.7 0L0 0Z" fill="#FFFFFF" stroke-linecap="round" stroke-linejoin="miter"></path></svg>