<svg id="visual" viewBox="0 0 960 540" width="960" height="540" xmlns="http://www.w3.org/2000/svg" xmlns:xlink="http://www.w3.org/1999/xlink" version="1.1"><path d="M0 344L22.8 359.7C45.7 375.3 91.3 406.7 137 416.8C182.7 427 228.3 416 274 409.8C319.7 403.7 365.3 402.3 411.2 403.7C457 405 503 409 548.8 419.5C594.7 430 640.3 447 686 438C731.7 429 777.3 394 823 383.8C868.7 373.7 914.3 388.3 937.2 395.7L960 403L960 541L937.2 541C914.3 541 868.7 541 823 541C777.3 541 731.7 541 686 541C640.3 541 594.7 541 548.8 541C503 541 457 541 411.2 541C365.3 541 319.7 541 274 541C228.3 541 182.7 541 137 541C91.3 541 45.7 541 22.8 541L0 541Z" fill="#FFFFFF" stroke-linecap="round" stroke-linejoin="miter"></path></svg>