<svg id="visual" viewBox="0 0 900 600" width="900" height="600" xmlns="http://www.w3.org/2000/svg" xmlns:xlink="http://www.w3.org/1999/xlink" version="1.1"><rect x="0" y="0" width="900" height="600" fill="#001220"></rect><defs><linearGradient id="grad1_0" x1="33.3%" y1="0%" x2="100%" y2="100%"><stop offset="20%" stop-color="#001220" stop-opacity="1"></stop><stop offset="80%" stop-color="#001220" stop-opacity="1"></stop></linearGradient></defs><defs><linearGradient id="grad2_0" x1="0%" y1="0%" x2="66.7%" y2="100%"><stop offset="20%" stop-color="#001220" stop-opacity="1"></stop><stop offset="80%" stop-color="#001220" stop-opacity="1"></stop></linearGradient></defs><g transform="translate(900, 0)"><path d="M0 378.6C-26.7 318 -53.3 257.5 -102.6 247.6C-151.8 237.7 -223.7 278.4 -267.7 267.7C-311.7 257 -328 194.8 -341.8 141.6C-355.7 88.4 -367.1 44.2 -378.6 0L0 0Z" fill="#FBAE3C"></path></g><g transform="translate(0, 600)"><path d="M0 -378.6C58.5 -383.2 117 -387.9 144.9 -349.8C172.8 -311.6 170.1 -230.8 188.1 -188.1C206.1 -145.4 244.7 -140.9 279.9 -116C315.1 -91 346.9 -45.5 378.6 0L0 0Z" fill="#FBAE3C"></path></g></svg>